<?xml version="1.0" encoding="UTF-8" standalone="no"?>
<svg
   xmlns:dc="http://purl.org/dc/elements/1.1/"
   xmlns:cc="http://creativecommons.org/ns#"
   xmlns:rdf="http://www.w3.org/1999/02/22-rdf-syntax-ns#"
   xmlns:svg="http://www.w3.org/2000/svg"
   xmlns="http://www.w3.org/2000/svg"
   xmlns:sodipodi="http://sodipodi.sourceforge.net/DTD/sodipodi-0.dtd"
   xmlns:inkscape="http://www.inkscape.org/namespaces/inkscape"
   version="1.1"
   width="864"
   height="604.79999"
   id="svg66"
   viewBox="0 0 864 604.79999"
   sodipodi:docname="jm logo.cdr">
  <metadata
     id="metadata72">
    <rdf:RDF>
      <cc:Work
         rdf:about="">
        <dc:format>image/svg+xml</dc:format>
        <dc:type
           rdf:resource="http://purl.org/dc/dcmitype/StillImage" />
      </cc:Work>
    </rdf:RDF>
  </metadata>
  <defs
     id="defs70" />
  <sodipodi:namedview
     pagecolor="#ffffff"
     bordercolor="#666666"
     borderopacity="1"
     objecttolerance="10"
     gridtolerance="10"
     guidetolerance="10"
     inkscape:pageopacity="0"
     inkscape:pageshadow="2"
     inkscape:window-width="640"
     inkscape:window-height="480"
     id="namedview68" />
  <g
     id="Layer1000">
    <g
       id="Layer1001" />
    <g
       id="Layer1002">
      <g
         id="Layer1003">
        <path
           d="m 602.9792,337.9899 v 6.8829 4.0579 6.6328 0.25 10.2919 c -0.0228,5.1854 -0.4445,8.6158 -1.2651,10.2797 -2.2907,4.7638 -6.3707,7.1685 -12.2172,7.2141 h -8.7754 v -10.9521 h 5.4705 c 1.5385,0 2.6325,-0.4103 3.2936,-1.2309 0.6496,-0.8319 0.9801,-2.2337 0.9801,-4.2167 v -11.386 -0.25 -6.6328 -4.0579 -6.8829 z"
           style="fill:#000000;fill-rule:evenodd"
           id="path3" />
        <path
           d="m 564.0552,337.9899 14.2572,45.6093 h -42.8741 l 9.2427,-28.0357 h 11.3624 l -4.8778,17.0949 h 11.7158 l -12.3539,-34.6685 z"
           style="fill:#000000;fill-rule:evenodd"
           id="path5" />
        <path
           d="M 502.3767,337.9899 H 517.99 c 4.6385,0 7.9663,0.4217 9.9721,1.265 2.8834,1.2081 4.9005,3.2253 6.063,6.063 0.6496,1.5614 0.9687,3.2025 0.9687,4.9462 0,3.1682 -0.9003,5.7667 -2.7124,7.7952 -0.8319,0.9346 -1.7323,1.6526 -2.7352,2.154 -0.9915,0.5015 -2.3819,0.9573 -4.1597,1.3562 1.4245,0.3077 2.5186,0.661 3.2936,1.0485 0.7636,0.3875 1.4588,0.9573 2.0856,1.6867 1.4246,1.6639 2.1539,4.08 2.1767,7.2369 v 12.0576 h -12.5135 v -10.7128 c 0,-2.4275 -0.5242,-4.1028 -1.5841,-5.0145 -1.0599,-0.9118 -3.0087,-1.3677 -5.8579,-1.3677 h -10.6102 v -10.9407 h 14.7472 c 2.1084,0 3.476,-0.3761 4.1028,-1.1397 0.5129,-0.6382 0.775,-1.3676 0.775,-2.1995 0,-1.1169 -0.3534,-1.9489 -1.0599,-2.4845 -0.7066,-0.5356 -1.8235,-0.8091 -3.3507,-0.8091 h -15.2144 z"
           style="fill:#000000;fill-rule:evenodd"
           id="path7" />
        <path
           d="m 485.6235,337.9834 14.2572,45.6093 h -42.8741 l 9.2427,-28.0357 h 11.3624 l -4.8778,17.0949 h 11.7158 l -12.3539,-34.6685 z"
           style="fill:#000000;fill-rule:evenodd"
           id="path9" />
        <path
           d="m 428.8809,337.9834 v 17.1015 h 13.1163 v -17.095 h 12.5135 v 45.6093 h -12.5135 v -17.1015 h -13.1163 v 17.095 h -12.5135 v -45.6093 z"
           style="fill:#000000;fill-rule:evenodd"
           id="path11" />
        <path
           d="m 400.3095,337.9834 14.2572,45.6093 h -42.8741 l 9.2427,-28.0357 h 11.3624 l -4.8778,17.0949 h 11.7158 l -12.3539,-34.6685 z"
           style="fill:#000000;fill-rule:evenodd"
           id="path13" />
        <path
           d="m 350.7342,355.557 v 28.0357 H 339.2464 V 355.557 Z"
           style="fill:#000000;fill-rule:evenodd"
           id="path15" />
        <path
           d="m 320.1685,337.9834 h 32.2296 c 3.9204,0 6.838,0.2507 8.7412,0.7636 1.8918,0.5128 3.5558,1.4929 4.9917,2.9175 1.3562,1.379 2.325,2.9973 2.8948,4.8435 0.5698,1.8577 0.8547,4.3307 0.8547,7.4306 v 29.6541 H 357.367 v -29.1754 c 0,-2.1539 -0.3761,-3.6127 -1.1168,-4.3649 -0.7408,-0.7522 -2.1654,-1.1282 -4.2624,-1.1282 h -19.3059 v 34.6685 h -12.5134 z"
           style="fill:#000000;fill-rule:evenodd"
           id="path17" />
        <path
           d="m 286.5598,366.6046 v 6.0473 h 4.5587 v 10.9408 h -4.5587 -11.4878 -4.8094 v -10.9408 h 4.8094 v -6.0479 c -3.1228,-0.8465 -5.7497,-2.446 -7.8865,-4.8017 -1.6525,-1.8007 -2.8035,-3.7951 -3.4645,-5.9946 -0.6497,-2.1996 -0.9802,-5.1399 -0.9802,-8.8438 v -8.9805 h 12.5135 v 11.3852 c 0,2.8035 0.6154,4.7296 1.8349,5.7781 1.0143,0.8661 2.2679,1.2992 3.7609,1.2992 1.9032,0 3.3164,-0.6154 4.2395,-1.8349 0.9232,-1.2194 1.379,-3.0998 1.379,-5.6413 v -10.9863 h 12.5135 v 7.9434 c 0,5.0829 -0.5356,8.8552 -1.6069,11.3055 -1.6639,3.8065 -4.2623,6.553 -7.7839,8.2512 -0.954,0.4598 -1.9647,0.8336 -3.0315,1.1211 z"
           style="fill:#000000;fill-rule:evenodd"
           id="path19" />
        <path
           d="m 249.2472,337.9834 14.2572,45.6093 h -42.8741 l 9.2426,-28.0357 h 11.3625 l -4.8778,17.0949 h 11.7158 l -12.3539,-34.6685 z"
           style="fill:#000000;fill-rule:evenodd"
           id="path21" />
        <path
           d="m 219.5021,337.9834 v 3.2041 7.7367 17.1747 c -0.0229,5.1854 -0.4445,8.6158 -1.2651,10.2797 -2.2907,4.7638 -6.3707,7.1685 -12.2172,7.2141 h -8.7754 v -10.9521 h 5.4704 c 1.5385,0 2.6326,-0.4104 3.2937,-1.2309 0.6495,-0.832 0.98,-2.2338 0.98,-4.2167 v -18.2688 -7.7367 -3.2041 z"
           style="fill:#000000;fill-rule:evenodd"
           id="path23" />
      </g>
      <text
         x="197.2449"
         y="432.39569"
         id="text28"><tspan
           font-family="Arial"
           font-size="43.5px"
           fill="#000000"
           id="tspan26">The Group Of Lions</tspan></text>
    </g>
    <g
       id="Layer1004" />
    <g
       id="Layer1005">
      <path
         d="m 447.6612,225.2769 c 8.4498,1.9689 24.4761,16.501 30.547,25.6181 7.8832,11.8377 12.9609,26.8829 12.9609,45.5768 0,3.9753 -0.7107,3.5419 -0.7903,7.1192 -2.5804,-1.8907 -18.5528,-33.0333 -21.6122,-38.5084 -1.0094,-1.8051 -1.389,-2.893 -2.38,-4.7398 -1.1568,-2.1546 -1.8567,-2.9551 -2.9143,-4.9966 -1.7872,-3.4535 -3.5042,-6.2056 -5.2733,-9.756 -3.9951,-8.0232 -6.739,-11.8117 -10.5378,-20.3133 z m -38.7609,-27.6863 c 9.8289,0 18.1497,7.4755 22.1488,13.4478 -1.7538,-0.4096 -10.4922,-4.3503 -18.9853,-6.3283 -0.3223,3.8767 -3.0824,7.0438 -6.3281,7.9101 v 1.5826 c 2.0713,0.5533 3.6085,2.0143 5.294,3.4075 12.333,10.1877 23.9751,23.5922 23.9751,41.6814 -0.1108,-0.1587 -0.2384,-0.6261 -0.2803,-0.5102 -0.002,0.005 -3.9472,-8.9827 -12.6989,-15.7796 -3.8384,-2.9812 -13.3523,-10.3436 -17.8716,-11.3967 3.9061,5.8348 6.3944,4.9088 13.712,19.5123 12.4177,24.7784 15.4432,54.2627 16.1535,83.4726 h 29.7692 c 0.229,-1.8133 0.3999,-3.6972 0.5079,-5.6622 0.8249,-15.01 0.665,-4.0451 -0.0365,-18.9947 -0.4196,-8.9393 -4.3951,-25.5421 -7.2037,-33.9324 -0.8476,-2.5339 -1.6693,-4.7956 -2.7301,-7.5529 -0.9462,-2.4627 -2.2104,-5.4292 -2.7093,-7.5736 6.2824,3.3245 10.7053,9.5499 14.9284,15.1313 11.7323,15.5084 12.7581,32.6214 12.7581,51.3173 0,1.9579 -0.1845,4.5624 -0.4977,7.2672 h 12.651 c 2.0775,-2.3363 3.8301,-4.5116 4.9175,-6.0174 3.939,-5.4553 11.4069,-18.7554 11.4069,-27.3549 4.7174,0.3926 21.2873,12.5841 33.224,0 -1.1191,-1.5281 -2.3802,-2.1852 -3.9903,-3.1289 l -13.8736,-9.8577 c -6.5495,-5.1044 -8.7304,-10.8972 -12.2088,-18.6423 -7.3446,-16.3505 -15.7357,-36.2662 -28.2506,-49.2724 -8.5182,-8.8512 -20.1223,-16.9693 -31.1105,-22.6811 l -16.8633,-6.8678 c -6.848,-2.2649 -17.4297,-5.8342 -25.8078,-5.8342 z"
         style="fill:#0000ff;fill-rule:evenodd"
         id="path32" />
      <path
         d="m 338.4963,266.4112 0.2361,0.2364 c -0.0159,-0.0161 -0.3149,-0.157 -0.2361,-0.2364 z m -47.463,-11.8655 -6.0358,1.9961 c -3.7559,0.7011 -3.7177,-0.1593 -5.8303,-1.9961 2.7836,0 4.4053,0.4623 5.7124,0.534 2.5939,0.1423 2.6342,-0.534 6.1537,-0.534 z m 0,0 5.5375,-3.9552 c 0,6.9914 -1.0605,13.8566 -9.4924,15.8207 1.3799,-2.0613 2.5767,-2.8927 4.1372,-5.3546 1.5601,-2.4628 2.2682,-4.2401 2.9823,-7.3015 -1.4437,0.7146 -0.9896,0.61 -3.1646,0.7906 z m 34.8066,-7.9101 -0.7912,-0.7914 z m -0.7912,-0.7914 z m -4.7466,-14.239 z m 4.7466,-30.8508 0.2362,0.2364 c -0.0159,-0.0162 -0.315,-0.1579 -0.2362,-0.2364 z m -4.7466,30.8508 c -5.2208,-2.7618 -7.2314,-5.345 -10.847,-9.7194 -1.2969,-1.5679 -2.0537,-2.4724 -2.6005,-4.5193 -3.1952,1.69 -6.7839,4.5592 -9.6764,6.9361 -8.0818,6.6401 -23.3178,18.3379 -23.5485,28.6611 l 3.956,1.582 -3.5991,0.7041 c -0.0533,0.0122 -0.2455,0.0346 -0.3569,0.087 4.1624,6.2156 7.0166,11.0744 13.4487,11.0744 -1.0616,0.8025 1.6639,0.7912 -2.3732,0.7912 0,12.8021 6.1804,9.3818 15.8392,11.8471 6.5477,1.6716 14.8376,4.8623 15.0114,12.6759 -6.1495,-0.5119 -4.0416,-5.8311 -11.5892,-7.3961 -4.3052,-0.8924 -12.7253,-0.5148 -18.4711,-0.5148 0,9.7869 4.9901,19.5222 11.8658,21.3585 0,-3.1235 0.2495,-3.2102 0.7915,-5.5375 3.8687,2.5906 1.8703,3.9555 7.9103,3.9555 0.8572,-1.7853 1.582,-5.9318 1.582,-8.7024 1.9769,2.2754 4.4278,8.936 12.5499,7.8897 6.0522,-0.7801 9.5933,-6.0591 5.6843,-11.8789 -9.3441,-13.907 6.0766,-23.2185 11.8264,-23.697 -3.03,2.6331 -3.911,2.4086 -4.7463,5.5377 18.1584,0 25.4826,3.9765 15.0292,23.7317 9.3212,-2.1714 28.493,-20.8145 20.5849,-38.7788 -2.8496,-6.4746 -10.5139,-13.1664 -20.0531,-8.9453 -4.354,1.9279 -5.8935,3.7758 -12.3956,3.4824 -5.0182,-0.226 -8.2341,-2.5311 -10.2849,-5.5945 3.484,0.8119 10.1075,5.7722 19.9131,-2.2368 3.9486,-3.225 9.7336,-8.8614 18.7319,-7.9988 20.6586,1.978 6.0086,31.979 24.6387,27.6381 0,-6.7635 -1.6983,-13.4652 -2.3012,-19.8479 l -1.5996,-15.0123 c -0.0513,-0.7455 -0.015,-1.5389 -0.1193,-2.2547 -1.014,-6.9752 -2.4911,-1.7328 -7.6927,-7.3372 -1.8572,-2.0001 -3.4231,-4.8163 -4.1076,-7.7564 -7.4727,5.0031 -18.3921,13.0997 -30.3477,8.9898 -2.8795,-0.9902 -1.1024,-0.3969 -2.0861,-1.08 6.0092,-1.3998 17.4274,-3.0175 16.8801,-7.7015 -0.5392,-4.6221 -7.3931,-8.0461 -7.3942,-13.6567 0,-7.3641 7.9736,-8.5241 9.4992,-14.239 l -5.1288,-6.7924 c -5.3801,-2.5126 -25.9548,7.3735 -32.0728,15.4715 -1.9729,2.6121 -3.0422,4.7282 -5.0451,7.6181 -1.3147,1.8967 -5.1866,5.9993 -0.5043,6.6305 3.4999,0.4723 5.6747,-3.2139 7.9452,-4.733 -1.4173,6.0826 -8.0651,11.8659 -15.821,11.8659 3.3078,6.2512 5.283,14.1865 15.5911,6.0618 3.5073,-2.7646 2.2434,-1.6749 6.558,-1.3158 -3.4747,4.7429 -11.0747,2.49 -11.0747,12.6564 z"
         style="fill:#0000ff;fill-rule:evenodd"
         id="path34" />
      <path
         d="m 318.7207,324.9497 c 3.3392,6.3111 7.3604,6.9146 15.0292,8.7013 -0.2143,0.3203 -0.4453,0.6315 -0.6837,0.9391 h 25.4583 c 0.1275,-6.3802 -0.2435,-12.9212 -1.2609,-19.7062 -0.4969,-3.3128 -2.0786,-7.0792 -2.1555,-10.5023 h -1.5817 c -1.8173,7.8006 -12.1394,18.2369 -22.3563,20.3652 -6.7277,1.4014 -6.11,0.2029 -12.4494,0.2029 z m -12.3973,102.6402 c 11.6515,18.6812 22.9118,25.8698 41.6652,35.7928 -0.5901,-2.2127 -7.5072,-8.9694 -10.8303,-12.901 -5.9805,-7.0759 -11.0707,-14.7977 -14.8118,-22.8918 z m 27.5357,0 c 3.6558,7.4568 8.7052,14.1185 14.722,20.1702 6.6991,6.7374 11.9883,9.7279 20.7547,14.0519 5.2557,2.5937 19.5721,7.736 26.9073,7.8987 -2.1229,-1.845 -4.7396,-2.2047 -8.2573,-3.6073 -21.1777,-8.4433 -33.7751,-21.6972 -38.9339,-38.5135 z"
         style="fill:#0000ff;fill-rule:evenodd"
         id="path36" />
      <path
         d="m 396.2431,235.5601 c 0.2457,2.9514 8.6145,23.7821 8.7227,41.1145 0.0394,6.2564 1.012,9.4972 0.798,15.8652 l -3.1842,30.0441 c -0.6497,3.89 -1.5361,7.9044 -2.5446,12.0062 h 27.3146 c 1.8658,-18.3954 -3.6023,-38.5934 -8.454,-52.8599 -5.6245,-16.5373 -9.5338,-22.1499 -16.0665,-35.3525 l -5.5004,-9.5298 c -1.4218,-1.8831 -0.0513,-0.0975 -1.0856,-1.2878 z m 7.3156,192.0298 c 3.5269,3.5487 4.7407,4.6772 9.5411,7.0713 3.4589,1.7238 8.5987,4.0969 13.203,4.1984 -2.3902,-1.6602 -5.9043,-1.5919 -10.8613,-5.7495 -1.9193,-1.6098 -3.4545,-3.4662 -4.6695,-5.5202 z"
         style="fill:#0000ff;fill-rule:evenodd"
         id="path38" />
      <path
         d="m 363.0191,303.591 c 2.2271,9.5593 3.1646,0.4861 3.1646,20.567 0,3.526 -0.2639,7.0109 -0.6914,10.4321 h 24.3694 c 0.394,-1.8802 0.7872,-3.9096 1.1875,-6.1333 1.0374,-5.7598 0.6412,-10.1194 1.4604,-15.9531 0.5896,-4.1953 0.2287,-10.3476 -0.3286,-15.9245 -0.4906,-4.9022 -2.0015,-9.813 -3.0574,-14.3464 l -12.759,10.9715 c -4.525,3.5852 -8.5833,7.198 -13.3455,10.3867 z m -0.5236,123.9989 c 10.08,13.8566 28.3056,20.7627 47.9863,20.7627 l -1.5236,-0.8496 c -11.5444,-5.8785 -12.7721,-4.4217 -24.7899,-16.3437 -1.1653,-1.156 -2.2342,-2.3479 -3.2173,-3.5694 z"
         style="fill:#0000ff;fill-rule:evenodd"
         id="path40" />
      <path
         d="m 513.3187,237.143 c 0,-9.8374 -6.8593,-22.286 -11.2901,-28.2631 -2.9376,-3.9612 -5.6826,-7.1269 -9.599,-10.1764 -21.5892,-16.812 -46.9482,-21.6808 -79.5741,-21.6808 1.4134,5.2937 7.1033,6.192 11.9665,7.81 l 28.6055,10.9466 c 15.679,6.7138 36.303,20.321 49.3749,31.3123 3.8931,3.2737 6.4279,7.3137 10.5163,10.0514 z"
         style="fill:#0000ff;fill-rule:evenodd"
         id="path42" />
      <path
         d="m 386.7504,161.202 c 6.6878,0.557 21.2426,3.8645 17.4036,11.8658 2.7578,-0.2296 3.852,-0.9689 6.2235,-1.6872 24.0882,-7.3009 47.0536,-1.5576 68.1354,9.5981 -3.9464,-16.9389 -26.5747,-28.4779 -46.6727,-28.4779 -11.675,0 -32.1851,3.0271 -43.01,7.6175 z"
         style="fill:#0000ff;fill-rule:evenodd"
         id="path44" />
      <path
         d="m 368.5568,181.769 h 5.5364 c 0.6505,-7.8162 10.2841,-12.2022 10.2841,1.5829 0,8.7069 -0.7912,14.3306 -0.7912,22.9402 -3.0506,0.7109 -3.956,0.9941 -4.746,3.9549 7.8497,5.2563 16.1492,-3.8551 17.361,-7.1617 1.6268,-4.4425 4.8498,-23.4136 -1.0377,-31.3104 -9.0474,-12.132 -26.2863,-4.4223 -26.6066,9.9941 z"
         style="fill:#0000ff;fill-rule:evenodd"
         id="path46" />
      <path
         d="m 370.1386,162.784 c 17.0192,-1.4165 7.0551,-0.7514 23.9779,-10.8278 5.2285,-3.1141 17.6017,-9.7389 25.0665,-9.7389 -2.0288,-7.602 -19.2934,-7.1201 -25.3131,-7.1201 -8.4331,0 -13.2074,3.4265 -16.7454,8.5688 -2.0939,3.0419 -6.8822,14.4474 -6.9859,19.118 z"
         style="fill:#0000ff;fill-rule:evenodd"
         id="path48" />
      <path
         d="m 363.8105,173.859 c 0.7642,-1.1424 4.1284,-5.5216 4.3325,-6.5472 0.7415,-3.729 -4.3793,-10.0542 2.2413,-22.4762 2.1966,-4.1204 4.0108,-5.0621 6.082,-8.1564 -9.0935,-0.7568 -21.0554,-3.5081 -24.0171,15.6005 -1.3416,8.657 4.2976,16.85 11.3613,21.5793 z"
         style="fill:#0000ff;fill-rule:evenodd"
         id="path50" />
      <path
         d="m 325.0487,157.2471 c 0.6733,8.1006 2.9007,11.8658 -11.8661,11.8658 l 1.0225,0.5599 c 0.1533,0.0717 0.8668,0.4053 1.082,0.4997 5.8104,2.5404 12.1288,6.3635 13.7162,13.1794 2.4463,-0.57 8.2506,-4.1757 10.2844,-5.538 -1.7668,-3.3392 -11.9911,-18.9204 -14.239,-20.5668 z"
         style="fill:#0000ff;fill-rule:evenodd"
         id="path52" />
      <path
         d="m 337.7057,156.4557 h -3.9558 c 0.1625,7.3054 7.0407,17.4033 14.2387,17.4033 16.8787,0 -0.7905,-0.6429 -0.7905,-13.4481 0,-6.1234 -0.3994,-4.3838 0.7905,-9.493 -2.122,1.5548 -3.4168,5.5378 -10.2829,5.5378 z"
         style="fill:#0000ff;fill-rule:evenodd"
         id="path54" />
      <path
         d="m 297.3613,305.173 v 0.7911 l 0.923,-0.6593 z"
         style="fill:#0000ff;fill-rule:evenodd"
         id="path56" />
      <path
         d="m 395.4516,233.9784 v -0.7915 l -0.9218,0.6599 z"
         style="fill:#0000ff;fill-rule:evenodd"
         id="path58" />
      <path
         d="m 396.2431,235.5601 -0.7915,-1.5817 z"
         style="fill:#0000ff;fill-rule:evenodd"
         id="path60" />
      <path
         d="m 325.0487,157.2471 -0.4354,-1.7011 z"
         style="fill:#0000ff;fill-rule:evenodd"
         id="path62" />
    </g>
  </g>
</svg>
